<?xml version="1.0" encoding="utf-8"?>
<svg version="1.1" id="Layer_1" xmlns="http://www.w3.org/2000/svg" xmlns:xlink="http://www.w3.org/1999/xlink" x="0px" y="0px"
     viewBox="0 0 166 100" style="enable-background:new 0 0 166 100;" xml:space="preserve">
    <path fill="#5b8282" d="M20,89.8h126.1c3.8,0,7-3.1,7-7v-15c-7.7-2.3-13.4-9.4-13.4-17.8s5.6-15.6,13.4-17.8v-15c0-3.8-3.1-7-7-7h-126
        c-3.8,0-7,3.1-7,7v15c7.8,2.2,13.5,9.4,13.5,17.9S20.8,65.8,13,68v15C13,86.7,16.1,89.8,20,89.8z"/>
    <path fill="#5b8282" d="M8.1,36.6c7.4,0,13.4,6,13.4,13.4s-6,13.4-13.4,13.4c-0.1,0-0.2,0-0.3,0v19.5C7.8,89.6,13.3,95,20,95h126.1
        c6.8,0,12.2-5.5,12.2-12.2V63.4c-7.4,0-13.4-6-13.4-13.4s6-13.4,13.4-13.4V17.2c0-6.8-5.5-12.2-12.2-12.2h-126
        C13.3,5,7.9,10.5,7.9,17.2v19.5C7.9,36.6,8,36.6,8.1,36.6z"/>
</svg>
